<?xml version="1.0" standalone="no"?>
<!DOCTYPE svg PUBLIC "-//W3C//DTD SVG 20010904//EN"
 "http://www.w3.org/TR/2001/REC-SVG-20010904/DTD/svg10.dtd">
<svg version="1.0" xmlns="http://www.w3.org/2000/svg"
 width="879.000000pt" height="879.000000pt" viewBox="0 0 879.000000 879.000000"
 preserveAspectRatio="xMidYMid meet">
<metadata>
Created by potrace 1.11, written by Peter Selinger 2001-2013
</metadata>
<g transform="translate(0.000000,879.000000) scale(0.100000,-0.100000)"
fill="#000000" stroke="none">
<path d="M2093 7022 l-32 -3 -3 -87 c-2 -48 -5 -654 -6 -1347 -6 -2470 -8
-2528 -76 -2818 -67 -282 -171 -437 -470 -697 -190 -165 -238 -214 -239 -241
0 -14 30 -67 70 -124 38 -55 87 -127 107 -159 21 -33 63 -90 93 -128 57 -72
75 -80 123 -55 321 170 340 180 420 237 149 106 200 149 298 249 110 112 168
188 222 286 18 33 45 77 58 98 68 102 172 505 188 722 3 44 7 94 10 110 12 85
19 953 19 2355 0 1279 -2 1569 -13 1588 l-13 23 -362 -3 c-199 -1 -376 -4
-394 -6z"/>
<path d="M3931 7021 c-23 -4 -36 -13 -39 -26 -7 -29 -10 -4706 -3 -4797 3 -42
12 -83 19 -90 23 -23 1198 -19 1512 6 41 3 113 8 160 11 124 7 180 14 330 41
74 13 151 26 170 30 90 14 332 87 420 126 274 123 416 215 581 378 159 158
255 297 351 510 42 91 82 190 91 220 9 30 28 96 43 145 14 50 28 101 31 115 2
14 13 72 23 130 45 242 51 326 49 760 -1 276 -6 447 -14 510 -38 275 -49 324
-142 639 -35 118 -166 370 -256 493 -241 329 -574 547 -1021 669 -120 33 -438
93 -551 104 -38 4 -84 8 -102 10 -129 15 -1582 29 -1652 16z m1349 -735 c263
-5 438 -29 655 -87 65 -18 275 -118 346 -166 80 -53 191 -163 259 -257 48 -66
126 -216 148 -286 6 -19 20 -62 31 -95 22 -70 71 -304 81 -390 14 -116 18
-531 8 -732 -9 -191 -54 -456 -93 -553 -7 -19 -16 -48 -20 -65 -11 -53 -116
-255 -167 -324 -100 -132 -256 -259 -402 -327 -140 -64 -316 -117 -431 -130
-31 -3 -85 -12 -118 -19 -45 -9 -171 -13 -450 -14 -362 -1 -388 0 -394 16 -6
15 -8 1528 -4 3050 l1 382 73 3 c39 2 119 2 177 1 58 -2 193 -4 300 -7z"/>
</g>
</svg>
